<!-- Generator: Adobe Illustrator 25.2.3, SVG Export Plug-In  -->
<svg version="1.1" xmlns="http://www.w3.org/2000/svg" xmlns:xlink="http://www.w3.org/1999/xlink" x="0px" y="0px" width="36.19px"
	 height="36.19px" viewBox="0 0 36.19 36.19" style="overflow:visible;enable-background:new 0 0 36.19 36.19;"
	 xml:space="preserve">
<style type="text/css">
	.st0{fill:#FFB800;}
	.st1{fill:#DD882E;}
</style>
<defs>
</defs>
<g>
	<circle class="st0" cx="18.09" cy="18.09" r="18.09"/>
</g>
<g>
	<circle class="st1" cx="18.09" cy="18.09" r="12.79"/>
</g>
<g>
	<path class="st0" d="M22.51,20.06c0,0.56-0.12,1.09-0.37,1.58c-0.25,0.49-0.61,0.91-1.08,1.27c-0.48,0.36-1.05,0.63-1.74,0.8v2.06
		H17.2v-1.82c-0.67-0.01-1.35-0.09-2.03-0.25c-0.69-0.15-1.13-0.32-1.33-0.49v-3.37c1.24,0.91,2.44,1.36,3.61,1.36
		c0.32,0,0.57-0.08,0.75-0.23c0.18-0.16,0.27-0.37,0.27-0.64c0-0.23-0.06-0.41-0.17-0.54c-0.11-0.13-0.3-0.27-0.56-0.42
		c-0.26-0.14-0.65-0.32-1.16-0.52c-1.93-0.77-2.9-2-2.9-3.7c0-0.99,0.31-1.82,0.94-2.49c0.63-0.67,1.49-1.1,2.59-1.3V9.59h2.13v1.7
		c1.06,0.06,1.91,0.19,2.56,0.4v3.27c-0.46-0.29-0.98-0.52-1.55-0.69c-0.57-0.17-1.13-0.26-1.68-0.26c-0.33,0-0.6,0.08-0.8,0.23
		c-0.2,0.15-0.31,0.35-0.31,0.58c0,0.29,0.12,0.53,0.36,0.73c0.24,0.2,0.64,0.41,1.18,0.63c1.18,0.48,2.05,1.04,2.6,1.67
		C22.24,18.47,22.51,19.21,22.51,20.06z"/>
</g>
</svg>